<mxfile host="app.diagrams.net" modified="2020-11-23T03:13:45.531Z" agent="5.0 (Windows NT 10.0; Win64; x64) AppleWebKit/537.36 (KHTML, like Gecko) Chrome/86.0.4240.111 Safari/537.36" etag="N0wiyPyFXjjV_8XCpiC-" version="13.10.1" type="github">
  <diagram id="JqcSIRBHY39DYans7OAG" name="Page-1">
    <mxGraphModel dx="1422" dy="762" grid="1" gridSize="10" guides="1" tooltips="1" connect="1" arrows="1" fold="1" page="1" pageScale="1" pageWidth="1100" pageHeight="850" math="0" shadow="0">
      <root>
        <mxCell id="0" />
        <mxCell id="1" parent="0" />
        <mxCell id="BdCQX0DcaFLKfjjOXheJ-1" value="NewsAspect" style="swimlane;fontStyle=0;childLayout=stackLayout;horizontal=1;startSize=26;fillColor=none;horizontalStack=0;resizeParent=1;resizeParentMax=0;resizeLast=0;collapsible=1;marginBottom=0;" vertex="1" parent="1">
          <mxGeometry x="470" y="425" width="140" height="130" as="geometry" />
        </mxCell>
        <mxCell id="BdCQX0DcaFLKfjjOXheJ-2" value="NewsId: GUID" style="text;strokeColor=none;fillColor=none;align=left;verticalAlign=top;spacingLeft=4;spacingRight=4;overflow=hidden;rotatable=0;points=[[0,0.5],[1,0.5]];portConstraint=eastwest;" vertex="1" parent="BdCQX0DcaFLKfjjOXheJ-1">
          <mxGeometry y="26" width="140" height="26" as="geometry" />
        </mxCell>
        <mxCell id="BdCQX0DcaFLKfjjOXheJ-3" value="Description: string" style="text;strokeColor=none;fillColor=none;align=left;verticalAlign=top;spacingLeft=4;spacingRight=4;overflow=hidden;rotatable=0;points=[[0,0.5],[1,0.5]];portConstraint=eastwest;" vertex="1" parent="BdCQX0DcaFLKfjjOXheJ-1">
          <mxGeometry y="52" width="140" height="26" as="geometry" />
        </mxCell>
        <mxCell id="BdCQX0DcaFLKfjjOXheJ-4" value="CreatedOn: DateTime" style="text;strokeColor=none;fillColor=none;align=left;verticalAlign=top;spacingLeft=4;spacingRight=4;overflow=hidden;rotatable=0;points=[[0,0.5],[1,0.5]];portConstraint=eastwest;" vertex="1" parent="BdCQX0DcaFLKfjjOXheJ-1">
          <mxGeometry y="78" width="140" height="26" as="geometry" />
        </mxCell>
        <mxCell id="BdCQX0DcaFLKfjjOXheJ-5" value="Status: NewsStatus" style="text;strokeColor=none;fillColor=none;align=left;verticalAlign=top;spacingLeft=4;spacingRight=4;overflow=hidden;rotatable=0;points=[[0,0.5],[1,0.5]];portConstraint=eastwest;" vertex="1" parent="BdCQX0DcaFLKfjjOXheJ-1">
          <mxGeometry y="104" width="140" height="26" as="geometry" />
        </mxCell>
        <mxCell id="BdCQX0DcaFLKfjjOXheJ-9" value="«interface»&lt;br&gt;&lt;b&gt;ImageId&lt;/b&gt;" style="html=1;" vertex="1" parent="1">
          <mxGeometry x="710" y="340" width="110" height="50" as="geometry" />
        </mxCell>
        <mxCell id="BdCQX0DcaFLKfjjOXheJ-11" value="«interface»&lt;br&gt;&lt;b&gt;UserId&lt;/b&gt;" style="html=1;" vertex="1" parent="1">
          <mxGeometry x="720" y="490" width="110" height="40" as="geometry" />
        </mxCell>
        <mxCell id="BdCQX0DcaFLKfjjOXheJ-12" value="Image" style="endArrow=block;endFill=1;html=1;edgeStyle=orthogonalEdgeStyle;align=left;verticalAlign=top;entryX=0;entryY=0.5;entryDx=0;entryDy=0;exitX=1;exitY=0.25;exitDx=0;exitDy=0;" edge="1" parent="1" source="BdCQX0DcaFLKfjjOXheJ-1" target="BdCQX0DcaFLKfjjOXheJ-9">
          <mxGeometry x="0.5077" relative="1" as="geometry">
            <mxPoint x="470" y="490" as="sourcePoint" />
            <mxPoint x="630" y="490" as="targetPoint" />
            <mxPoint as="offset" />
          </mxGeometry>
        </mxCell>
        <mxCell id="BdCQX0DcaFLKfjjOXheJ-13" value="1" style="edgeLabel;resizable=0;html=1;align=left;verticalAlign=bottom;" connectable="0" vertex="1" parent="BdCQX0DcaFLKfjjOXheJ-12">
          <mxGeometry x="-1" relative="1" as="geometry" />
        </mxCell>
        <mxCell id="BdCQX0DcaFLKfjjOXheJ-14" value="CreatedBy" style="endArrow=block;endFill=1;html=1;edgeStyle=orthogonalEdgeStyle;align=left;verticalAlign=top;entryX=0;entryY=0.5;entryDx=0;entryDy=0;" edge="1" parent="1" source="BdCQX0DcaFLKfjjOXheJ-3" target="BdCQX0DcaFLKfjjOXheJ-11">
          <mxGeometry x="0.4" y="5" relative="1" as="geometry">
            <mxPoint x="470" y="490" as="sourcePoint" />
            <mxPoint x="630" y="490" as="targetPoint" />
            <mxPoint as="offset" />
          </mxGeometry>
        </mxCell>
        <mxCell id="BdCQX0DcaFLKfjjOXheJ-15" value="1" style="edgeLabel;resizable=0;html=1;align=left;verticalAlign=bottom;" connectable="0" vertex="1" parent="BdCQX0DcaFLKfjjOXheJ-14">
          <mxGeometry x="-1" relative="1" as="geometry" />
        </mxCell>
        <mxCell id="BdCQX0DcaFLKfjjOXheJ-17" value="News" style="html=1;fillColor=#dae8fc;strokeColor=#6c8ebf;" vertex="1" parent="1">
          <mxGeometry x="480" y="250" width="140" height="50" as="geometry" />
        </mxCell>
        <mxCell id="BdCQX0DcaFLKfjjOXheJ-18" value="1" style="endArrow=open;html=1;endSize=12;startArrow=diamondThin;startSize=14;startFill=1;edgeStyle=orthogonalEdgeStyle;align=left;verticalAlign=bottom;entryX=0.5;entryY=0;entryDx=0;entryDy=0;exitX=0.5;exitY=1;exitDx=0;exitDy=0;" edge="1" parent="1" source="BdCQX0DcaFLKfjjOXheJ-17" target="BdCQX0DcaFLKfjjOXheJ-1">
          <mxGeometry x="-0.5556" y="-20" relative="1" as="geometry">
            <mxPoint x="470" y="290" as="sourcePoint" />
            <mxPoint x="630" y="290" as="targetPoint" />
            <mxPoint as="offset" />
          </mxGeometry>
        </mxCell>
      </root>
    </mxGraphModel>
  </diagram>
</mxfile>
